<?xml version="1.0" encoding="us-ascii" standalone="no"?><svg xmlns="http://www.w3.org/2000/svg" xmlns:xlink="http://www.w3.org/1999/xlink" contentStyleType="text/css" height="469px" preserveAspectRatio="none" style="width:761px;height:469px;background:#FFFFFF;" version="1.1" viewBox="0 0 761 469" width="761px" zoomAndPan="magnify"><defs/><g><!--class Collector--><g id="elem_Collector"><rect codeLine="1" fill="#F1F1F1" height="48" id="Collector" rx="2.5" ry="2.5" style="stroke:#181818;stroke-width:0.5;" width="98" x="280.1181" y="7"/><ellipse cx="295.1181" cy="23" fill="#ADD1B2" rx="11" ry="11" style="stroke:#181818;stroke-width:1.0;"/><path d="M297.4618,18.6719 C296.5243,18.2344 295.9306,18.0938 295.0556,18.0938 C292.4306,18.0938 290.4306,20.1719 290.4306,22.8906 L290.4306,24.0156 C290.4306,26.5938 292.54,28.4844 295.4306,28.4844 C296.6493,28.4844 297.8056,28.1875 298.5556,27.6406 C299.1337,27.2344 299.4618,26.7813 299.4618,26.3906 C299.4618,25.9375 299.0712,25.5469 298.6025,25.5469 C298.3837,25.5469 298.1806,25.625 297.9931,25.8125 C297.54,26.2969 297.54,26.2969 297.3525,26.3906 C296.9306,26.6563 296.2431,26.7813 295.4775,26.7813 C293.4306,26.7813 292.1337,25.6875 292.1337,23.9844 L292.1337,22.8906 C292.1337,21.1094 293.3837,19.7969 295.1181,19.7969 C295.6962,19.7969 296.3056,19.9531 296.7743,20.2031 C297.2587,20.4844 297.4306,20.7031 297.5243,21.1094 C297.5868,21.5156 297.6181,21.6406 297.7587,21.7656 C297.8993,21.9063 298.1337,22.0156 298.3525,22.0156 C298.6181,22.0156 298.8837,21.875 299.0556,21.6563 C299.165,21.5 299.1962,21.3125 299.1962,20.8906 L299.1962,19.4688 C299.1962,19.0313 299.1806,18.9063 299.0868,18.75 C298.9306,18.4844 298.6493,18.3438 298.3525,18.3438 C298.0556,18.3438 297.8525,18.4375 297.6337,18.75 L297.4618,18.6719 Z " fill="#000000"/><text fill="#000000" font-family="sans-serif" font-size="14" lengthAdjust="spacing" textLength="66" x="309.1181" y="27.8467">Collector</text><line style="stroke:#181818;stroke-width:0.5;" x1="281.1181" x2="377.1181" y1="39" y2="39"/><line style="stroke:#181818;stroke-width:0.5;" x1="281.1181" x2="377.1181" y1="47" y2="47"/></g><!--class Aim--><g id="elem_Aim"><rect codeLine="3" fill="#F1F1F1" height="64.2969" id="Aim" rx="2.5" ry="2.5" style="stroke:#181818;stroke-width:0.5;" width="177" x="128.6181" y="132"/><ellipse cx="198.8681" cy="148" fill="#ADD1B2" rx="11" ry="11" style="stroke:#181818;stroke-width:1.0;"/><path d="M201.2119,143.6719 C200.2744,143.2344 199.6806,143.0938 198.8056,143.0938 C196.1806,143.0938 194.1806,145.1719 194.1806,147.8906 L194.1806,149.0156 C194.1806,151.5938 196.29,153.4844 199.1806,153.4844 C200.3994,153.4844 201.5556,153.1875 202.3056,152.6406 C202.8837,152.2344 203.2119,151.7813 203.2119,151.3906 C203.2119,150.9375 202.8212,150.5469 202.3525,150.5469 C202.1337,150.5469 201.9306,150.625 201.7431,150.8125 C201.29,151.2969 201.29,151.2969 201.1025,151.3906 C200.6806,151.6563 199.9931,151.7813 199.2275,151.7813 C197.1806,151.7813 195.8837,150.6875 195.8837,148.9844 L195.8837,147.8906 C195.8837,146.1094 197.1337,144.7969 198.8681,144.7969 C199.4462,144.7969 200.0556,144.9531 200.5244,145.2031 C201.0087,145.4844 201.1806,145.7031 201.2744,146.1094 C201.3369,146.5156 201.3681,146.6406 201.5087,146.7656 C201.6494,146.9063 201.8837,147.0156 202.1025,147.0156 C202.3681,147.0156 202.6337,146.875 202.8056,146.6563 C202.915,146.5 202.9462,146.3125 202.9462,145.8906 L202.9462,144.4688 C202.9462,144.0313 202.9306,143.9063 202.8369,143.75 C202.6806,143.4844 202.3994,143.3438 202.1025,143.3438 C201.8056,143.3438 201.6025,143.4375 201.3837,143.75 L201.2119,143.6719 Z " fill="#000000"/><text fill="#000000" font-family="sans-serif" font-size="14" lengthAdjust="spacing" textLength="28" x="219.3681" y="152.8467">Aim</text><line style="stroke:#181818;stroke-width:0.5;" x1="129.6181" x2="304.6181" y1="164" y2="164"/><line style="stroke:#181818;stroke-width:0.5;" x1="129.6181" x2="304.6181" y1="172" y2="172"/><ellipse cx="139.6181" cy="185.6484" fill="#84BE84" rx="3" ry="3" style="stroke:#038048;stroke-width:1.0;"/><text fill="#000000" font-family="sans-serif" font-size="14" lengthAdjust="spacing" textLength="151" x="148.6181" y="188.9951">getArmorThickness()</text></g><!--class Dispatcher--><g id="elem_Dispatcher"><rect codeLine="7" fill="#F1F1F1" height="64.2969" id="Dispatcher" rx="2.5" ry="2.5" style="stroke:#181818;stroke-width:0.5;" width="142" x="341.1181" y="132"/><ellipse cx="370.0681" cy="148" fill="#ADD1B2" rx="11" ry="11" style="stroke:#181818;stroke-width:1.0;"/><path d="M372.4118,143.6719 C371.4743,143.2344 370.8806,143.0938 370.0056,143.0938 C367.3806,143.0938 365.3806,145.1719 365.3806,147.8906 L365.3806,149.0156 C365.3806,151.5938 367.49,153.4844 370.3806,153.4844 C371.5993,153.4844 372.7556,153.1875 373.5056,152.6406 C374.0837,152.2344 374.4118,151.7813 374.4118,151.3906 C374.4118,150.9375 374.0212,150.5469 373.5525,150.5469 C373.3337,150.5469 373.1306,150.625 372.9431,150.8125 C372.49,151.2969 372.49,151.2969 372.3025,151.3906 C371.8806,151.6563 371.1931,151.7813 370.4275,151.7813 C368.3806,151.7813 367.0837,150.6875 367.0837,148.9844 L367.0837,147.8906 C367.0837,146.1094 368.3337,144.7969 370.0681,144.7969 C370.6462,144.7969 371.2556,144.9531 371.7243,145.2031 C372.2087,145.4844 372.3806,145.7031 372.4743,146.1094 C372.5368,146.5156 372.5681,146.6406 372.7087,146.7656 C372.8493,146.9063 373.0837,147.0156 373.3025,147.0156 C373.5681,147.0156 373.8337,146.875 374.0056,146.6563 C374.115,146.5 374.1462,146.3125 374.1462,145.8906 L374.1462,144.4688 C374.1462,144.0313 374.1306,143.9063 374.0368,143.75 C373.8806,143.4844 373.5993,143.3438 373.3025,143.3438 C373.0056,143.3438 372.8025,143.4375 372.5837,143.75 L372.4118,143.6719 Z " fill="#000000"/><text fill="#000000" font-family="sans-serif" font-size="14" lengthAdjust="spacing" textLength="79" x="387.1681" y="152.8467">Dispatcher</text><line style="stroke:#181818;stroke-width:0.5;" x1="342.1181" x2="482.1181" y1="164" y2="164"/><line style="stroke:#181818;stroke-width:0.5;" x1="342.1181" x2="482.1181" y1="172" y2="172"/><ellipse cx="352.1181" cy="185.6484" fill="#84BE84" rx="3" ry="3" style="stroke:#038048;stroke-width:1.0;"/><text fill="#000000" font-family="sans-serif" font-size="14" lengthAdjust="spacing" textLength="116" x="361.1181" y="188.9951">getRightTanks()</text></g><!--class MessageCreator--><g id="elem_MessageCreator"><rect codeLine="13" fill="#F1F1F1" height="64.2969" id="MessageCreator" rx="2.5" ry="2.5" style="stroke:#181818;stroke-width:0.5;" width="148" x="80.1181" y="273"/><ellipse cx="95.1181" cy="289" fill="#ADD1B2" rx="11" ry="11" style="stroke:#181818;stroke-width:1.0;"/><path d="M97.4619,284.6719 C96.5244,284.2344 95.9306,284.0938 95.0556,284.0938 C92.4306,284.0938 90.4306,286.1719 90.4306,288.8906 L90.4306,290.0156 C90.4306,292.5938 92.54,294.4844 95.4306,294.4844 C96.6494,294.4844 97.8056,294.1875 98.5556,293.6406 C99.1337,293.2344 99.4619,292.7813 99.4619,292.3906 C99.4619,291.9375 99.0712,291.5469 98.6025,291.5469 C98.3837,291.5469 98.1806,291.625 97.9931,291.8125 C97.54,292.2969 97.54,292.2969 97.3525,292.3906 C96.9306,292.6563 96.2431,292.7813 95.4775,292.7813 C93.4306,292.7813 92.1337,291.6875 92.1337,289.9844 L92.1337,288.8906 C92.1337,287.1094 93.3837,285.7969 95.1181,285.7969 C95.6962,285.7969 96.3056,285.9531 96.7744,286.2031 C97.2587,286.4844 97.4306,286.7031 97.5244,287.1094 C97.5869,287.5156 97.6181,287.6406 97.7587,287.7656 C97.8994,287.9063 98.1337,288.0156 98.3525,288.0156 C98.6181,288.0156 98.8837,287.875 99.0556,287.6563 C99.165,287.5 99.1962,287.3125 99.1962,286.8906 L99.1962,285.4688 C99.1962,285.0313 99.1806,284.9063 99.0869,284.75 C98.9306,284.4844 98.6494,284.3438 98.3525,284.3438 C98.0556,284.3438 97.8525,284.4375 97.6337,284.75 L97.4619,284.6719 Z " fill="#000000"/><text fill="#000000" font-family="sans-serif" font-size="14" lengthAdjust="spacing" textLength="116" x="109.1181" y="293.8467">MessageCreator</text><line style="stroke:#181818;stroke-width:0.5;" x1="81.1181" x2="227.1181" y1="305" y2="305"/><line style="stroke:#181818;stroke-width:0.5;" x1="81.1181" x2="227.1181" y1="313" y2="313"/><ellipse cx="91.1181" cy="326.6484" fill="#84BE84" rx="3" ry="3" style="stroke:#038048;stroke-width:1.0;"/><text fill="#000000" font-family="sans-serif" font-size="14" lengthAdjust="spacing" textLength="57" x="100.1181" y="329.9951">create()</text></g><!--class Tanks--><g id="elem_Tanks"><rect codeLine="17" fill="#F1F1F1" height="64.2969" id="Tanks" rx="2.5" ry="2.5" style="stroke:#181818;stroke-width:0.5;" width="74" x="374.1181" y="398"/><ellipse cx="389.1181" cy="414" fill="#ADD1B2" rx="11" ry="11" style="stroke:#181818;stroke-width:1.0;"/><path d="M391.4618,409.6719 C390.5243,409.2344 389.9306,409.0938 389.0556,409.0938 C386.4306,409.0938 384.4306,411.1719 384.4306,413.8906 L384.4306,415.0156 C384.4306,417.5938 386.54,419.4844 389.4306,419.4844 C390.6493,419.4844 391.8056,419.1875 392.5556,418.6406 C393.1337,418.2344 393.4618,417.7813 393.4618,417.3906 C393.4618,416.9375 393.0712,416.5469 392.6025,416.5469 C392.3837,416.5469 392.1806,416.625 391.9931,416.8125 C391.54,417.2969 391.54,417.2969 391.3525,417.3906 C390.9306,417.6563 390.2431,417.7813 389.4775,417.7813 C387.4306,417.7813 386.1337,416.6875 386.1337,414.9844 L386.1337,413.8906 C386.1337,412.1094 387.3837,410.7969 389.1181,410.7969 C389.6962,410.7969 390.3056,410.9531 390.7743,411.2031 C391.2587,411.4844 391.4306,411.7031 391.5243,412.1094 C391.5868,412.5156 391.6181,412.6406 391.7587,412.7656 C391.8993,412.9063 392.1337,413.0156 392.3525,413.0156 C392.6181,413.0156 392.8837,412.875 393.0556,412.6563 C393.165,412.5 393.1962,412.3125 393.1962,411.8906 L393.1962,410.4688 C393.1962,410.0313 393.1806,409.9063 393.0868,409.75 C392.9306,409.4844 392.6493,409.3438 392.3525,409.3438 C392.0556,409.3438 391.8525,409.4375 391.6337,409.75 L391.4618,409.6719 Z " fill="#000000"/><text fill="#000000" font-family="sans-serif" font-size="14" lengthAdjust="spacing" textLength="42" x="403.1181" y="418.8467">Tanks</text><line style="stroke:#181818;stroke-width:0.5;" x1="375.1181" x2="447.1181" y1="430" y2="430"/><text fill="#000000" font-family="sans-serif" font-size="14" lengthAdjust="spacing" textLength="57" x="380.1181" y="446.9951">cranes[]</text><line style="stroke:#181818;stroke-width:0.5;" x1="375.1181" x2="447.1181" y1="454.2969" y2="454.2969"/></g><!--class TankSearcher--><g id="elem_TankSearcher"><rect codeLine="21" fill="#F1F1F1" height="64.2969" id="TankSearcher" rx="2.5" ry="2.5" style="stroke:#181818;stroke-width:0.5;" width="131" x="345.6181" y="273"/><ellipse cx="360.6181" cy="289" fill="#ADD1B2" rx="11" ry="11" style="stroke:#181818;stroke-width:1.0;"/><path d="M362.9618,284.6719 C362.0243,284.2344 361.4306,284.0938 360.5556,284.0938 C357.9306,284.0938 355.9306,286.1719 355.9306,288.8906 L355.9306,290.0156 C355.9306,292.5938 358.04,294.4844 360.9306,294.4844 C362.1493,294.4844 363.3056,294.1875 364.0556,293.6406 C364.6337,293.2344 364.9618,292.7813 364.9618,292.3906 C364.9618,291.9375 364.5712,291.5469 364.1025,291.5469 C363.8837,291.5469 363.6806,291.625 363.4931,291.8125 C363.04,292.2969 363.04,292.2969 362.8525,292.3906 C362.4306,292.6563 361.7431,292.7813 360.9775,292.7813 C358.9306,292.7813 357.6337,291.6875 357.6337,289.9844 L357.6337,288.8906 C357.6337,287.1094 358.8837,285.7969 360.6181,285.7969 C361.1962,285.7969 361.8056,285.9531 362.2743,286.2031 C362.7587,286.4844 362.9306,286.7031 363.0243,287.1094 C363.0868,287.5156 363.1181,287.6406 363.2587,287.7656 C363.3993,287.9063 363.6337,288.0156 363.8525,288.0156 C364.1181,288.0156 364.3837,287.875 364.5556,287.6563 C364.665,287.5 364.6962,287.3125 364.6962,286.8906 L364.6962,285.4688 C364.6962,285.0313 364.6806,284.9063 364.5868,284.75 C364.4306,284.4844 364.1493,284.3438 363.8525,284.3438 C363.5556,284.3438 363.3525,284.4375 363.1337,284.75 L362.9618,284.6719 Z " fill="#000000"/><text fill="#000000" font-family="sans-serif" font-size="14" lengthAdjust="spacing" textLength="99" x="374.6181" y="293.8467">TankSearcher</text><line style="stroke:#181818;stroke-width:0.5;" x1="346.6181" x2="475.6181" y1="305" y2="305"/><line style="stroke:#181818;stroke-width:0.5;" x1="346.6181" x2="475.6181" y1="313" y2="313"/><ellipse cx="356.6181" cy="326.6484" fill="#84BE84" rx="3" ry="3" style="stroke:#038048;stroke-width:1.0;"/><text fill="#000000" font-family="sans-serif" font-size="14" lengthAdjust="spacing" textLength="77" x="365.6181" y="329.9951">findRight()</text></g><!--class Sorter--><g id="elem_Sorter"><rect codeLine="25" fill="#F1F1F1" height="64.2969" id="Sorter" rx="2.5" ry="2.5" style="stroke:#181818;stroke-width:0.5;" width="129" x="566.6181" y="273"/><ellipse cx="604.5681" cy="289" fill="#ADD1B2" rx="11" ry="11" style="stroke:#181818;stroke-width:1.0;"/><path d="M606.9119,284.6719 C605.9744,284.2344 605.3806,284.0938 604.5056,284.0938 C601.8806,284.0938 599.8806,286.1719 599.8806,288.8906 L599.8806,290.0156 C599.8806,292.5938 601.99,294.4844 604.8806,294.4844 C606.0994,294.4844 607.2556,294.1875 608.0056,293.6406 C608.5837,293.2344 608.9119,292.7813 608.9119,292.3906 C608.9119,291.9375 608.5212,291.5469 608.0525,291.5469 C607.8337,291.5469 607.6306,291.625 607.4431,291.8125 C606.99,292.2969 606.99,292.2969 606.8025,292.3906 C606.3806,292.6563 605.6931,292.7813 604.9275,292.7813 C602.8806,292.7813 601.5837,291.6875 601.5837,289.9844 L601.5837,288.8906 C601.5837,287.1094 602.8337,285.7969 604.5681,285.7969 C605.1462,285.7969 605.7556,285.9531 606.2244,286.2031 C606.7087,286.4844 606.8806,286.7031 606.9744,287.1094 C607.0369,287.5156 607.0681,287.6406 607.2087,287.7656 C607.3494,287.9063 607.5837,288.0156 607.8025,288.0156 C608.0681,288.0156 608.3337,287.875 608.5056,287.6563 C608.615,287.5 608.6462,287.3125 608.6462,286.8906 L608.6462,285.4688 C608.6462,285.0313 608.6306,284.9063 608.5369,284.75 C608.3806,284.4844 608.0994,284.3438 607.8025,284.3438 C607.5056,284.3438 607.3025,284.4375 607.0837,284.75 L606.9119,284.6719 Z " fill="#000000"/><text fill="#000000" font-family="sans-serif" font-size="14" lengthAdjust="spacing" textLength="46" x="623.6681" y="293.8467">Sorter</text><line style="stroke:#181818;stroke-width:0.5;" x1="567.6181" x2="694.6181" y1="305" y2="305"/><line style="stroke:#181818;stroke-width:0.5;" x1="567.6181" x2="694.6181" y1="313" y2="313"/><ellipse cx="577.6181" cy="326.6484" fill="#84BE84" rx="3" ry="3" style="stroke:#038048;stroke-width:1.0;"/><text fill="#000000" font-family="sans-serif" font-size="14" lengthAdjust="spacing" textLength="103" x="586.6181" y="329.9951">sortBySpeed()</text></g><!--link Collector to Aim--><g id="link_Collector_Aim"><path codeLine="30" d="M309.3521,55.119 C292.1371,75.255 266.9141,104.756 247.1951,127.821 " fill="none" id="Collector-to-Aim" style="stroke:#181818;stroke-width:1.0;"/><polygon fill="#181818" points="243.8301,131.756,252.7179,127.5126,247.0784,127.9549,246.6362,122.3153,243.8301,131.756" style="stroke:#181818;stroke-width:1.0;"/></g><!--link Collector to Dispatcher--><g id="link_Collector_Dispatcher"><path codeLine="31" d="M322.5001,55.32 C319.7751,69.57 318.7471,87.735 326.1181,102 C331.4121,112.245 339.3081,121.142 348.2061,128.734 " fill="none" id="Collector-to-Dispatcher" style="stroke:#181818;stroke-width:1.0;"/><polygon fill="#181818" points="352.0761,131.908,347.6551,123.1072,348.2105,128.7367,342.581,129.2921,352.0761,131.908" style="stroke:#181818;stroke-width:1.0;"/><text fill="#000000" font-family="sans-serif" font-size="13" lengthAdjust="spacing" textLength="41" x="327.1181" y="98.0669">aims[]</text></g><!--link Dispatcher to Collector--><g id="link_Dispatcher_Collector"><path codeLine="39" d="M398.4961,131.727 C391.6251,117.101 382.7171,99.707 373.1181,85 C367.3321,76.135 360.2871,67.065 353.5451,58.99 " fill="none" id="Dispatcher-to-Collector" style="stroke:#181818;stroke-width:1.0;"/><polygon fill="#181818" points="350.2671,55.112,353.0234,64.5673,353.4953,58.9302,359.1325,59.4021,350.2671,55.112" style="stroke:#181818;stroke-width:1.0;"/><text fill="#000000" font-family="sans-serif" font-size="13" lengthAdjust="spacing" textLength="105" x="384.1181" y="98.0669">message(string)</text></g><!--link Dispatcher to TankSearcher--><g id="link_Dispatcher_TankSearcher"><path codeLine="32" d="M383.3851,196.068 C376.7491,205.079 370.6131,215.374 367.1181,226 C362.3171,240.596 367.7801,255.547 376.2981,268.404 " fill="none" id="Dispatcher-to-TankSearcher" style="stroke:#181818;stroke-width:1.0;"/><polygon fill="#181818" points="379.2931,272.68,377.4064,263.0135,376.4247,268.5846,370.8537,267.6029,379.2931,272.68" style="stroke:#181818;stroke-width:1.0;"/><text fill="#000000" font-family="sans-serif" font-size="13" lengthAdjust="spacing" textLength="41" x="368.1181" y="239.0669">aims[]</text></g><!--link TankSearcher to Dispatcher--><g id="link_TankSearcher_Dispatcher"><path codeLine="34" d="M412.9391,272.979 C413.4231,263.373 413.8781,252.752 414.1181,243 C414.4531,229.371 414.2151,214.403 413.8041,201.255 " fill="none" id="TankSearcher-to-Dispatcher" style="stroke:#181818;stroke-width:1.0;"/><polygon fill="#181818" points="413.6321,196.123,409.9352,205.2517,413.7992,201.1202,417.9307,204.9843,413.6321,196.123" style="stroke:#181818;stroke-width:1.0;"/><text fill="#000000" font-family="sans-serif" font-size="13" lengthAdjust="spacing" textLength="77" x="415.1181" y="239.0669">rightTanks[]</text></g><!--link TankSearcher to Tanks--><g id="link_TankSearcher_Tanks"><path codeLine="33" d="M411.1181,337.038 C411.1181,353.936 411.1181,374.9385 411.1181,392.6046 " fill="none" id="TankSearcher-to-Tanks" style="stroke:#181818;stroke-width:1.0;"/><polygon fill="#181818" points="411.1181,397.9718,415.1181,388.9718,411.1181,392.9718,407.1181,388.9718,411.1181,397.9718" style="stroke:#181818;stroke-width:1.0;"/></g><!--link Dispatcher to Sorter--><g id="link_Dispatcher_Sorter"><path codeLine="35" d="M460.9931,196.021 C495.6391,218.011 542.1081,247.505 577.7261,270.112 " fill="none" id="Dispatcher-to-Sorter" style="stroke:#181818;stroke-width:1.0;"/><polygon fill="#181818" points="582.0141,272.833,576.5586,264.6332,577.7925,270.1538,572.2719,271.3877,582.0141,272.833" style="stroke:#181818;stroke-width:1.0;"/><text fill="#000000" font-family="sans-serif" font-size="13" lengthAdjust="spacing" textLength="77" x="535.1181" y="239.0669">rightTanks[]</text></g><!--link Sorter to Dispatcher--><g id="link_Sorter_Dispatcher"><path codeLine="36" d="M634.6611,272.668 C634.7171,256.97 631.9391,238.662 621.1181,226 C588.6051,187.956 533.8201,172.947 488.4971,167.323 " fill="none" id="Sorter-to-Dispatcher" style="stroke:#181818;stroke-width:1.0;"/><polygon fill="#181818" points="483.3011,166.713,491.7734,171.7349,488.267,167.2959,492.706,163.7895,483.3011,166.713" style="stroke:#181818;stroke-width:1.0;"/><text fill="#000000" font-family="sans-serif" font-size="13" lengthAdjust="spacing" textLength="122" x="631.1181" y="239.0669">sortedRightTanks[]</text></g><!--link Dispatcher to MessageCreator--><g id="link_Dispatcher_MessageCreator"><path codeLine="37" d="M340.6441,191.508 C334.7621,193.195 328.8691,194.725 323.1181,196 C258.7881,210.268 72.2921,177.106 28.1181,226 C6,250.481 37.6612,270.009 74.771,283.402 " fill="none" id="Dispatcher-to-MessageCreator" style="stroke:#181818;stroke-width:1.0;"/><polygon fill="#181818" points="79.7981,285.169,72.6335,278.4111,75.081,283.5111,69.9809,285.9586,79.7981,285.169" style="stroke:#181818;stroke-width:1.0;"/><text fill="#000000" font-family="sans-serif" font-size="13" lengthAdjust="spacing" textLength="150" x="29.1181" y="239.0669">sortedRightTanks[],aim</text></g><!--link MessageCreator to Dispatcher--><g id="link_MessageCreator_Dispatcher"><path codeLine="38" d="M187.6591,272.638 C205.5121,257.121 228.4231,238.986 251.1181,226 C259.2811,221.33 298.3271,206.509 335.9191,192.647 " fill="none" id="MessageCreator-to-Dispatcher" style="stroke:#181818;stroke-width:1.0;"/><polygon fill="#181818" points="340.9711,190.787,331.1434,190.1416,336.2788,192.5139,333.9065,197.6493,340.9711,190.787" style="stroke:#181818;stroke-width:1.0;"/><text fill="#000000" font-family="sans-serif" font-size="13" lengthAdjust="spacing" textLength="105" x="252.1181" y="239.0669">message(string)</text></g><!--SRC=[VP2x3eCm34NtV4N68ieFTAX4wTe5sAeEKN0XuX7aPAcg_dkJy0fGTRFiutjzpHkc54raqm3N4WdXhX6Bbhv9M8AEiPMOLuBN7IXr2CXdOgv2zKpp2j2WZar5MUcSTRNb5l1c5ba92G8p5aQMsmfyBRTaP3WoOtD_h2SPC1nzmgVe2kVZhsSIzJ1MfhgyiXwW600oPwDHTBR1DfqbneaoqLfpBvab_1DcPdNNHAbzsvV7-Jzxao72XXbpRNLiI2ZIFshhb__QE9eSP8tjVDfXV50QHLS6MvFvZplo2m00]--></g></svg>